<?xml version="1.0" encoding="UTF-8" standalone="no"?>
<!-- Generator: Adobe Illustrator 28.1.0, SVG Export Plug-In . SVG Version: 6.00 Build 0)  -->

<svg
   version="1.1"
   id="Layer_1"
   x="0px"
   y="0px"
   viewBox="0 0 1034.9838 351.56396"
   xml:space="preserve"
   sodipodi:docname="55f42e5f35698ca35601d64ee2b6ec2a.svg"
   width="1034.9838"
   height="351.56396"

   id="defs120" /><sodipodi:namedview
   id="namedview118"
   pagecolor="#ffffff"
   bordercolor="#666666"
   borderopacity="1.0"
   inkscape:pageshadow="2"
   inkscape:pageopacity="0.0"
   inkscape:pagecheckerboard="0" />
<style
   type="text/css"
   id="style2">
	.st0{fill:url(#SVGID_1_);}
	.st1{fill:url(#SVGID_00000143583743353017195070000000181472006238298283_);}
	.st2{fill:#FFFFFF;}
	.st3{fill:url(#SVGID_00000155859035512364821550000002849725347936855226_);}
	.st4{fill:url(#SVGID_00000051361265252345702190000001028454481125611651_);}
	.st5{fill:url(#SVGID_00000001665554465513789640000014330879083563547799_);}
	.st6{fill:url(#SVGID_00000179614793968138333760000014296135748207872930_);}
	.st7{fill:url(#SVGID_00000018214408209864946600000016448598346239128199_);}
	.st8{fill:url(#SVGID_00000063635810245134248940000000917035111292584634_);}
	.st9{fill:url(#SVGID_00000167374999498785247040000002551631722807166612_);}
	.st10{fill:url(#SVGID_00000080886718244784060870000006785037616384570521_);}
	.st11{fill:url(#SVGID_00000170991977525137241250000000574819234626517408_);}
</style>
<linearGradient
   id="SVGID_1_"
   gradientUnits="userSpaceOnUse"
   x1="64.794899"
   y1="177.1115"
   x2="367.02231"
   y2="177.1115"
   gradientTransform="translate(-20.009538,-24.51)">
	<stop
   offset="0"
   style="stop-color:#F9B317"
   id="stop4" />
	<stop
   offset="0.5315"
   style="stop-color:#DC8821"
   id="stop6" />
	<stop
   offset="1"
   style="stop-color:#C56728"
   id="stop8" />
</linearGradient>
<path
   class="st0"
   d="m 180.12046,0 c 5.71,0.64 11.44,1.18 17.14,1.92 32.62,4.27 61.64,16.82 86.88,37.91 31.13,26.01 51.14,58.82 59.58,98.46 1.76,8.26 2.2,16.8 3.21,25.22 0.28,2.33 -0.08,4.08 -3.12,4.15 -31.63,0.79 -61.55,9.85 -91.14,19.76 -67.35,22.56 -127.39,57.95 -180.689998,104.73 -4.27,3.75 -7.53,8.66 -11.28,13.06 -2.41,-2.02 -3.33,-2.65 -4.08,-3.44 -3.72,-3.97 -7.4,-7.99 -11.84,-12.82 6.71,-5.98 13.74,-12.47 21.02,-18.67 13.71,-11.7 28.25,-22.26 44.339998,-30.53 4.98,-2.56 7.97,-6.47 10.2,-11.57 15.69,-35.91 31.58,-71.74 47.43,-107.59 0.56,-1.26 1.27,-2.45 2.25,-4.31 8.74,16.63 17.12,32.66 25.58,48.64 3.97,7.51 8.23,14.86 12.07,22.43 1.77,3.49 3.67,3.74 7.22,2.53 15.12,-5.14 30.35,-9.97 45.59,-14.75 2.81,-0.88 5.83,-1.06 8.69,-1.55 -16.35,-29.76 -32.45,-59.06 -48.55,-88.38 -14.81,-26.96 -29.62,-53.91 -44.4,-80.88 -0.75,-1.38 -1.27,-2.88 -1.9,-4.32 1.93,0 3.87,0 5.8,0 z"
   id="path11"
   style="fill:url(#SVGID_1_)" />
<linearGradient
   id="SVGID_00000031913165446943805430000013144844122093717153_"
   gradientUnits="userSpaceOnUse"
   x1="20"
   y1="162.2713"
   x2="185.63969"
   y2="162.2713"
   gradientTransform="translate(-20.009538,-24.51)">
	<stop
   offset="0"
   style="stop-color:#F9B317"
   id="stop13" />
	<stop
   offset="0.5315"
   style="stop-color:#DC8821"
   id="stop15" />
	<stop
   offset="1"
   style="stop-color:#C56728"
   id="stop17" />
</linearGradient>
<path
   style="fill:url(#SVGID_00000031913165446943805430000013144844122093717153_)"
   d="m 165.63046,0 c -0.45,2.11 -0.52,4.39 -1.39,6.3 -7.36,16.16 -14.59,32.4 -22.37,48.35 -35.12,71.94 -70.399998,143.8 -105.619998,215.68 -0.7,1.43 -1.44,2.84 -2.64,5.19 -2.05,-2.63 -3.95,-4.65 -5.38,-6.96 -13.93,-22.59 -23.54,-46.68 -26.86,-73.25 -11,-88.14 45.18,-169.66 133.939998,-191.09 7.27,-1.76 14.87,-2.18 22.31,-3.27 1.4,-0.21 2.77,-0.62 4.16,-0.94 1.27,-0.01 2.56,-0.01 3.85,-0.01 z"
   id="path20" />
<path
   class="st2"
   d="m 519.77046,202.46 c -2.52,0.14 -4.11,0.37 -5.69,0.3 -20.39,-0.86 -40.78,-2.34 -61.18,-2.54 -35.39,-0.34 -70.65,1.2 -104.93,11.45 -3.33,1 -4.89,2.52 -5.81,5.96 -17.63,65.93 -59.18,109.38 -124.97,127.51 -45.28,12.48 -89.48,6.72 -130.749998,-16.79 -4.71,-2.68 -4.87,-4.53 -1.24,-8.48 38.859998,-42.25 86.039998,-72.37 138.599998,-94.59 31.72,-13.41 64.73,-22.69 98.68,-28.16 15.65,-2.52 31.62,-3.54 47.48,-4.15 23.13,-0.88 46.35,-1.86 69.44,-0.8 23.2,1.06 46.29,4.54 69.43,7.02 3.02,0.32 6,1.02 8.99,1.61 0.38,0.08 0.69,0.57 1.95,1.66 z"
   id="path22" />
<linearGradient
   id="SVGID_00000079450511081541156550000013261217853609800633_"
   gradientUnits="userSpaceOnUse"
   x1="739.17242"
   y1="196.0686"
   x2="739.17242"
   y2="75.504799"
   gradientTransform="translate(-20.009538,-24.51)">
	<stop
   offset="0"
   style="stop-color:#F9B317"
   id="stop24" />
	<stop
   offset="0.5315"
   style="stop-color:#DC8821"
   id="stop26" />
	<stop
   offset="1"
   style="stop-color:#C56728"
   id="stop28" />
</linearGradient>
<path
   style="fill:url(#SVGID_00000079450511081541156550000013261217853609800633_)"
   d="m 703.45046,51.09 c 0,13.78 0,27.02 0,41.32 3.01,-1.92 5.29,-3.26 7.44,-4.77 8.44,-5.91 17.97,-6.29 27.23,-3.79 11.6,3.12 19.01,11.51 19.43,23.55 0.73,21.13 0.2,42.3 0.2,63.81 -6.92,0 -13.88,0 -21.28,0 -0.07,-1.54 -0.18,-3.08 -0.21,-4.62 -0.27,-15.56 -0.46,-31.13 -0.83,-46.69 -0.06,-2.69 -0.55,-5.45 -1.34,-8.02 -2.6,-8.4 -12.47,-11.47 -20.58,-6.41 -5.54,3.46 -8.7,8.64 -8.96,15.1 -0.57,14.25 -0.8,28.52 -1.15,42.78 -0.06,2.53 -0.01,5.06 -0.01,8.17 -7.1,0 -13.81,0.16 -20.49,-0.19 -0.89,-0.05 -2.31,-2.7 -2.34,-4.16 -0.19,-12.2 -0.11,-24.41 -0.11,-36.61 0,-24.89 0.08,-49.78 -0.08,-74.67 -0.03,-3.84 1.09,-5.07 4.91,-4.88 5.9,0.29 11.81,0.08 18.17,0.08 z"
   id="path31" />
<linearGradient
   id="SVGID_00000031910774580493183940000015883126332575881870_"
   gradientUnits="userSpaceOnUse"
   x1="940.21429"
   y1="198.0775"
   x2="940.21429"
   y2="109.6171"
   gradientTransform="translate(-20.009538,-24.51)">
	<stop
   offset="0"
   style="stop-color:#F9B317"
   id="stop33" />
	<stop
   offset="0.5315"
   style="stop-color:#DC8821"
   id="stop35" />
	<stop
   offset="1"
   style="stop-color:#C56728"
   id="stop37" />
</linearGradient>
<path
   style="fill:url(#SVGID_00000031910774580493183940000015883126332575881870_)"
   d="m 904.46046,85.26 c 0,13.98 -0.07,27.61 0.04,41.25 0.03,4.15 0.36,8.32 0.86,12.44 1.09,8.87 6.61,13.54 15.6,13.47 7.89,-0.06 14.03,-5.36 14.37,-13.8 0.61,-15.07 0.47,-30.16 0.64,-45.24 0.03,-2.68 0,-5.36 0,-8.27 7.74,0 14.89,0 22.57,0 0,9.92 0.25,19.67 -0.07,29.4 -0.37,11.17 -0.2,22.51 -2.16,33.44 -2.7,15.06 -17,25.38 -32.47,25.59 -9.25,0.13 -18.29,-0.22 -26.31,-5.67 -10.02,-6.82 -13.49,-17.16 -15.05,-28.36 -0.69,-4.9 -0.64,-9.93 -0.68,-14.9 -0.08,-12.99 -0.03,-25.97 -0.03,-39.35 7.61,0 14.87,0 22.69,0 z"
   id="path40" />
<linearGradient
   id="SVGID_00000151538823721752904980000012034881429532810925_"
   gradientUnits="userSpaceOnUse"
   x1="839.25427"
   y1="198.23891"
   x2="839.25427"
   y2="106.9646"
   gradientTransform="translate(-20.009538,-24.51)">
	<stop
   offset="0"
   style="stop-color:#F9B317"
   id="stop42" />
	<stop
   offset="0.5315"
   style="stop-color:#DC8821"
   id="stop44" />
	<stop
   offset="1"
   style="stop-color:#C56728"
   id="stop46" />
</linearGradient>
<path
   style="fill:url(#SVGID_00000151538823721752904980000012034881429532810925_)"
   d="m 864.27046,102.66 c -6.34,3.39 -11.29,6.37 -16.56,8.65 -1.46,0.63 -4.26,-0.3 -5.73,-1.43 -9.66,-7.45 -20.22,-7.76 -30.96,-3.59 -10.56,4.1 -15.44,14.57 -13.75,27.41 1.24,9.38 9.62,17.13 19.97,18.73 9.78,1.51 18.39,-0.56 25.92,-7.19 0.96,-0.85 3.55,-1 4.69,-0.32 4.94,2.98 9.62,6.38 15.2,10.18 -2.42,2.73 -4.43,5.58 -7,7.78 -17.28,14.79 -57.12,16.85 -74.27,-9.08 -16.41,-24.81 -5.87,-62.3 28.42,-69.74 16.89,-3.66 32.97,-1.44 46.63,10.27 2.61,2.23 4.62,5.13 7.44,8.33 z"
   id="path49" />
<linearGradient
   id="SVGID_00000173143231688204891920000002278711573448688562_"
   gradientUnits="userSpaceOnUse"
   x1="1023.9545"
   y1="198.3412"
   x2="1023.9545"
   y2="106.8847"
   gradientTransform="translate(-20.009538,-24.51)">
	<stop
   offset="0"
   style="stop-color:#F9B317"
   id="stop51" />
	<stop
   offset="0.5315"
   style="stop-color:#DC8821"
   id="stop53" />
	<stop
   offset="1"
   style="stop-color:#C56728"
   id="stop55" />
</linearGradient>
<path
   style="fill:url(#SVGID_00000173143231688204891920000002278711573448688562_)"
   d="m 972.90046,158.04 c 4.59,-4.82 9,-9.44 12.8,-13.43 5.76,2.94 10.84,5.69 16.09004,8.11 1.5,0.69 3.66,0.96 5.15,0.42 2.09,-0.76 5.04,-2.18 5.42,-3.83 0.51,-2.19 -0.35,-5.67 -1.95,-7.17 -2.84,-2.67 -6.72,-4.21 -10.1,-6.33 -5.27004,-3.31 -11.16004,-6 -15.60004,-10.2 -15.54,-14.7 -9.68,-36.34 11.03,-42.08 13.83004,-3.83 30.14004,2.22 36.79004,13.34 -4.43,4.73 -8.78,9.37 -13.23,14.12 -2.11,-1.71 -3.81,-3.46 -5.85,-4.64 -2.31,-1.34 -4.92,-3 -7.39,-2.97 -2.66,0.04 -6.54004,1.15 -7.67004,3.08 -1.85,3.15 1.35,5.57 4.07004,7.06 6.03,3.3 12.36,6.09 18.27,9.58 7.8,4.61 13.22,11.14 14.1,20.58 1.1,11.77 -3.73,20.54 -14.19,26 -16.5,8.61 -38.65004,3.4 -47.74004,-11.64 z"
   id="path58" />
<linearGradient
   id="SVGID_00000157283638064820111480000002413704379729368472_"
   gradientUnits="userSpaceOnUse"
   x1="627.97388"
   y1="196.186"
   x2="627.97388"
   y2="77.9701"
   gradientTransform="translate(-20.009538,-24.51)">
	<stop
   offset="0"
   style="stop-color:#F9B317"
   id="stop60" />
	<stop
   offset="0.5315"
   style="stop-color:#DC8821"
   id="stop62" />
	<stop
   offset="1"
   style="stop-color:#C56728"
   id="stop64" />
</linearGradient>
<path
   style="fill:url(#SVGID_00000157283638064820111480000002413704379729368472_)"
   d="m 618.69046,53.46 c 0,10.38 0,20.59 0,31.26 4.2,0 7.99,0 12.1,0 0,6.47 0,12.49 0,19.2 -3.82,0 -7.73,0 -12.09,0 0,3.83 0,7.01 0,10.19 0,17.51 -0.07,35.03 0.06,52.54 0.03,3.56 -0.69,5.27 -4.77,5.01 -5.73,-0.36 -11.49,-0.09 -17.66,-0.09 0,-22.61 0,-44.72 0,-67.3 -3.87,0 -7.32,0 -11.18,0 0,-6.61 0,-12.75 0,-19.33 3.52,0 6.99,0 10.9,0 0,-10.64 0,-20.86 0,-31.47 7.56,-0.01 14.7,-0.01 22.64,-0.01 z"
   id="path67" />
<linearGradient
   id="SVGID_00000141424663082080141280000012728719587093150104_"
   gradientUnits="userSpaceOnUse"
   x1="579.93988"
   y1="195.78841"
   x2="579.93988"
   y2="106.9235"
   gradientTransform="translate(-20.009538,-24.51)">
	<stop
   offset="0"
   style="stop-color:#F9B317"
   id="stop69" />
	<stop
   offset="0.5315"
   style="stop-color:#DC8821"
   id="stop71" />
	<stop
   offset="1"
   style="stop-color:#C56728"
   id="stop73" />
</linearGradient>
<path
   style="fill:url(#SVGID_00000141424663082080141280000012728719587093150104_)"
   d="m 556.10046,92.36 c 13.17,-10.87 17.13,-11.98 27.11,-7.42 -2.18,6.18 -4.37,12.4 -6.55,18.59 -11.49,-1.99 -16.36,1.54 -16.93,13.24 -0.69,14.08 -0.68,28.2 -0.93,42.3 -0.07,3.98 -0.01,7.95 -0.01,12.2 -7.56,0 -14.69,0 -22.13,0 0,-28.75 0,-57.35 0,-86.18 6.43,0 12.62,0 19.04,0 0.13,2.5 0.26,4.82 0.4,7.27 z"
   id="path76" />
<linearGradient
   id="SVGID_00000037654085914390006390000006560370944043418018_"
   gradientUnits="userSpaceOnUse"
   x1="670.83893"
   y1="195.6786"
   x2="670.83893"
   y2="109.5698"
   gradientTransform="translate(-20.009538,-24.51)">
	<stop
   offset="0"
   style="stop-color:#F9B317"
   id="stop78" />
	<stop
   offset="0.5315"
   style="stop-color:#DC8821"
   id="stop80" />
	<stop
   offset="1"
   style="stop-color:#C56728"
   id="stop82" />
</linearGradient>
<path
   style="fill:url(#SVGID_00000037654085914390006390000006560370944043418018_)"
   d="m 639.62046,85.06 c 7.45,0 14.63,0 22.42,0 0,14.38 0,28.62 0,42.85 0,14.29 0,28.58 0,43.26 -7.47,0 -14.77,0 -22.42,0 0,-28.6 0,-57.26 0,-86.11 z"
   id="path85" />
<path
   class="st2"
   d="m 852.30046,225.07 c 0,6.89 0.14,13.3 -0.11,19.71 -0.06,1.45 -1.15,3.36 -2.36,4.17 -9.58,6.4 -20.06,8.39 -31.19,5.12 -7.16,-2.1 -12.32,-6.83 -15.17,-13.77 -3.29,-8.01 -3.59,-16.3 -0.87,-24.45 5.43,-16.24 27.86,-23.29 41.48,-12.84 3.44,2.64 5.55,7 8.92,11.43 -4.61,1.02 -7.53,1.8 -10.5,2.24 -0.81,0.12 -2.23,-0.57 -2.61,-1.29 -3.26,-6.19 -8.48,-7.95 -14.97,-6.77 -6.83,1.24 -11.03,5.63 -11.79,12.24 -0.57,4.97 -0.56,10.48 1,15.14 3.8,11.37 16.48,12.51 25.43,5.86 1.44,-1.07 1.12,-4.51 1.72,-7.38 -4.68,0 -8.49,0 -12.67,0 0,-3.29 0,-6.21 0,-9.41 7.79,0 15.43,0 23.69,0 z"
   id="path87" />
<path
   class="st2"
   d="m 940.44046,249.79 c -0.19,1.83 -0.31,3.06 -0.46,4.5 -3.04,0 -6.02,0 -9.36,0 0,-18.15 0,-36.14 0,-54.42 3.4,0 6.67,0 10.45,0 0,6 0,11.82 0,17.2 4.11,-1.13 7.8,-2.75 11.59,-3.04 6.81,-0.52 11.77,3.11 14.43,9.16 3.31,7.51 3.17,15.35 -0.14,22.84 -3.81,8.59 -15.41,14.18 -26.51,3.76 z m 0.59,-15.6 c 0.08,1.59 0.01,3.05 0.26,4.46 0.89,4.97 4.32,8.2 8.56,8.22 4.43,0.02 7.28,-2.82 7.93,-8.46 0.32,-2.81 0.24,-5.74 -0.12,-8.55 -0.6,-4.69 -3.66,-7.57 -7.72,-7.76 -4.13,-0.2 -7.73,2.84 -8.63,7.48 -0.31,1.53 -0.21,3.16 -0.28,4.61 z"
   id="path89" />
<path
   class="st2"
   d="m 902.12046,255.45 c -12.69,0.03 -20.74,-8.01 -20.78,-20.77 -0.04,-12.55 8.26,-20.87 20.78,-20.8 11.94,0.06 20.63,8.82 20.58,20.73 -0.05,11.92 -8.83,20.81 -20.58,20.84 z m 9.23,-20.85 c 0,-9.06 -6.26,-14.34 -13.14,-11.12 -4.83,2.26 -5.71,6.56 -5.7,11.22 0,4.68 0.97,8.96 5.81,11.17 6.9,3.17 13.03,-2.14 13.03,-11.27 z"
   id="path91" />
<path
   class="st2"
   d="m 1011.3105,254.56 c -3.86,-0.95 -8.7,2.27 -10.73,-2.13 -5.08004,1.04 -9.77004,2.61 -14.53004,2.83 -5.46,0.25 -10.15,-4.17 -10.98,-9.01 -1.08,-6.32 1.5,-11.3 7.51,-13.34 4.37,-1.49 9.01,-2.15 13.45,-3.47 1.24,-0.37 3.21,-2.09 3.04,-2.64 -0.48,-1.56 -1.62,-3.59 -2.99,-4.07 -3.42,-1.2 -6.89,-1.16 -9.53,2.26 -0.69,0.89 -2.32,1.5 -3.49,1.46 -2.21,-0.07 -4.4,-0.71 -7.3,-1.24 1,-2.05 1.82,-3.84 2.73,-5.58 4.13,-7.9 24.91004,-7.26 28.83004,-1.6 1.21,1.74 2.17,3.99 2.31,6.08 0.37,5.26 0.04,10.57 0.3,15.85 0.24,4.73 0.88,9.47 1.38,14.6 z m -12.39004,-18.65 c -3.05,0.74 -5.84,1.37 -8.6,2.09 -3.11,0.8 -5.59,2.43 -4.41,6.04 1.12,3.42 4.08,4.36 7.44,3.57 4.74,-1.11 6.29,-4.23 5.57,-11.7 z"
   id="path93" />
<linearGradient
   id="SVGID_00000081636072506929280810000016436294313300675725_"
   gradientUnits="userSpaceOnUse"
   x1="670.73163"
   y1="102.5347"
   x2="670.73163"
   y2="73.508003"
   gradientTransform="translate(-20.009538,-24.51)">
	<stop
   offset="0"
   style="stop-color:#F9B317"
   id="stop95" />
	<stop
   offset="0.5315"
   style="stop-color:#DC8821"
   id="stop97" />
	<stop
   offset="1"
   style="stop-color:#C56728"
   id="stop99" />
</linearGradient>
<path
   style="fill:url(#SVGID_00000081636072506929280810000016436294313300675725_)"
   d="m 664.93046,63.27 c -0.06,8.56 -5.79,14.7 -13.76,14.75 -8.2,0.05 -14.71,-6.44 -14.65,-14.62 0.05,-7.64 6.98,-14.53 14.5,-14.41 7.44,0.13 13.96,6.81 13.91,14.28 z"
   id="path102" />
<path
   class="st2"
   d="m 862.61046,199.72 c 3.58,0 6.77,0 10.35,0 0,18.14 0,36.16 0,54.47 -3.35,0 -6.66,0 -10.35,0 0,-17.96 0,-35.97 0,-54.47 z"
   id="path104" />
<path
   class="st2"
   d="m 1020.7205,199.82 c 3.49,0 6.64,0 10.02,0 0,18.12 0,36 0,54.28 -3.17,0 -6.43,0 -10.02,0 0,-17.88 0,-35.89 0,-54.28 z"
   id="path106" />
<linearGradient
   id="SVGID_00000178199672258450871210000010989004531047065012_"
   gradientUnits="userSpaceOnUse"
   x1="490.69312"
   y1="196.0865"
   x2="490.69312"
   y2="78.760002"
   gradientTransform="translate(-20.009538,-24.51)">
	<stop
   offset="0"
   style="stop-color:#F9B317"
   id="stop108" />
	<stop
   offset="0.5315"
   style="stop-color:#DC8821"
   id="stop110" />
	<stop
   offset="1"
   style="stop-color:#C56728"
   id="stop112" />
</linearGradient>
<path
   style="fill:url(#SVGID_00000178199672258450871210000010989004531047065012_)"
   d="m 526.35046,168.76 c -14.28,-37.15 -28.55,-74.31 -43.01,-111.4 -0.54,-1.38 -2.89,-2.77 -4.5,-2.89 -4.96,-0.37 -9.98,0.05 -14.96,-0.21 -3.33,-0.17 -5.08,0.82 -6.34,4.11 -13.71,35.67 -27.59,71.26 -41.39,106.89 -0.72,1.87 -1.06,3.89 -1.64,6.09 8.22,0 15.91,0 23.52,0 3.11,-7.89 6.14,-15.59 9.32,-23.68 14.88,0 29.83,-0.06 44.77,0.12 1.07,0.01 2.6,1.59 3.09,2.78 2.43,5.91 4.51,11.96 6.92,17.88 0.49,1.21 1.86,2.91 2.88,2.94 7.18,0.26 14.38,0.14 21.85,0.14 -0.22,-1.25 -0.24,-2.06 -0.51,-2.77 z m -70.36,-43.84 c 4.95,-12.58 9.74,-24.78 14.86,-37.8 5.17,13.16 9.92,25.24 14.86,37.8 -10.12,0 -19.6,0 -29.72,0 z"
   id="path115" />
</svg>
